# xmcd CD database file
#
# Track frame offsets:
#	150
#	19648
#	42238
#
# Disc length: 1009 seconds
#
# Revision: 0
# Processed by: cddbd v1.5PL3 Copyright (c) Steve Scherf et al.
# Submitted via: CDex 1.50beta10
#
DISCID=1903ef03
DTITLE=nanosounds - DEMO3
DYEAR=2003
DGENRE=Techno
TTITLE0=Nine to Ten
TTITLE1=Set Your Soul Free
TTITLE2=Ip6.1.0
EXTD=YEAR: 2003
EXTT0=
EXTT1=
EXTT2=
PLAYORDER=
